<svg xmlns="http://www.w3.org/2000/svg" enable-background="new 0 0 512 512" viewBox="0 0 512 512"><path d="m274.909 31.641 60.046 121.667c3.072 6.224 9.009 10.537 15.877 11.535l134.267 19.51c17.296 2.513 24.202 23.768 11.687 35.968l-97.157 94.704c-4.97 4.844-7.238 11.824-6.064 18.665l22.936 133.725c2.954 17.226-15.126 30.362-30.596 22.229l-120.092-63.136c-6.143-3.23-13.482-3.23-19.625 0l-120.092 63.136c-15.47 8.133-33.55-5.003-30.596-22.229l22.936-133.725c1.173-6.84-1.095-13.82-6.064-18.665l-97.157-94.704c-12.517-12.199-5.61-33.454 11.685-35.967l134.267-19.51c6.868-.998 12.805-5.312 15.877-11.535l60.046-121.667c7.736-15.673 30.084-15.673 37.819-.001z" fill="#e3e3e3"/></svg>